PathFileType	4	(X/Y/Z)	/Users/itak/Documents/Research/Walk-IL/dataset/trc/00369_00011.trc
DataRate	CameraRate	NumFrames	NumMarkers	Units	OrigDataRate	OrigDataStartFrame	OrigNumFrames
100.000000	100.000000	4	54	mm	100.000000	473	541
Frame#	Time	RPSI			LPSI			L3			STRN			T10			C7			CLAV			RBAK			LBAK			LSHO			LUPA			LAEL			LAOL			LWTS			LWPS			LFRA			LIFD			LHPS			LHTS			RSHO			RUPA			RAEL			RAOL			RWTS			RWPS			RFRA			RIFD			RHTS			RHPS			RBHD			LFHD			RFHD			LBHD			LHIP			RHIP			RASI			LASI			LKNE			LTHI			LANK			LTIP			LTOE			LMT1			LMT5			LHEE			RKNE			RTHI			RANK			RTIP			RTOE			RMT1			RMT5			RHEE			*53			
		X1	Y1	Z1	X2	Y2	Z2	X3	Y3	Z3	X4	Y4	Z4	X5	Y5	Z5	X6	Y6	Z6	X7	Y7	Z7	X8	Y8	Z8	X9	Y9	Z9	X10	Y10	Z10	X11	Y11	Z11	X12	Y12	Z12	X13	Y13	Z13	X14	Y14	Z14	X15	Y15	Z15	X16	Y16	Z16	X17	Y17	Z17	X18	Y18	Z18	X19	Y19	Z19	X20	Y20	Z20	X21	Y21	Z21	X22	Y22	Z22	X23	Y23	Z23	X24	Y24	Z24	X25	Y25	Z25	X26	Y26	Z26	X27	Y27	Z27	X28	Y28	Z28	X29	Y29	Z29	X30	Y30	Z30	X31	Y31	Z31	X32	Y32	Z32	X33	Y33	Z33	X34	Y34	Z34	X35	Y35	Z35	X36	Y36	Z36	X37	Y37	Z37	X38	Y38	Z38	X39	Y39	Z39	X40	Y40	Z40	X41	Y41	Z41	X42	Y42	Z42	X43	Y43	Z43	X44	Y44	Z44	X45	Y45	Z45	X46	Y46	Z46	X47	Y47	Z47	X48	Y48	Z48	X49	Y49	Z49	X50	Y50	Z50	X51	Y51	Z51	X52	Y52	Z52	X53	Y53	Z53	X54	Y54	Z54	

474	4.73	52.44868469238281	973.531494140625	952.0473022460938	181.9086608886719	970.9349365234375	959.360107421875	112.9515686035156	1026.351806640625	951.3583984375	113.6869049072266	1232.75439453125	1167.747192382812	125.0785369873047	1145.852905273438	932.4627685546875	148.1981048583984	1397.194580078125	956.6337890625	125.7139739990234	1354.301879882812	1114.939086914062	81.04170989990234	1257.007568359375	915.6589965820312	248.2230529785156	1355.766845703125	955.507568359375	297.1451110839844	1377.2998046875	1043.84521484375	362.784423828125	1254.53759765625	1041.467651367188	380.5368041992188	1055.49853515625	1089.312744140625	328.1221008300781	1030.291259765625	1026.567016601562	313.1600036621094	875.308837890625	1261.202392578125	366.0415954589844	842.26416015625	1230.771362304688	380.9732971191406	960.0326538085938	1134.8115234375	288.7224426269531	727.6908569335938	1331.432861328125	350.8048095703125	778.015625	1256.395263671875	319.4216918945312	807.1077270507812	1304.891235351562	-20.40140533447266	1394.737182617188	997.8617553710938	-83.38880920410156	1330.810668945312	982.4662475585938	-120.6716918945312	1064.281616210938	982.7630004882812	-27.58377456665039	1056.528686523438	968.01513671875	-112.1423492431641	834.4974975585938	1096.891479492188	-168.9767150878906	824.0521850585938	1045.755493164062	-138.2728881835938	998.4331665039062	1003.070068359375	-135.1890106201172	659.8502197265625	1096.0634765625	-136.89697265625	731.0986938476562	1113.935791015625	-172.6344604492188	739.3013916015625	1054.771240234375	62.49763870239258	1615.228271484375	1000.427917480469	175.7639465332031	1617.291381835938	1175.533081054688	75.21764373779297	1620.949340820312	1162.114013671875	207.0625152587891	1606.189819335938	991.8428344726562	281.1720581054688	918.6331176757812	1054.205932617188	-61.32097625732422	927.778076171875	1029.033203125	-23.95467376708984	961.703369140625	1135.263793945312	213.5633239746094	953.6482543945312	1169.239013671875	246.9785614013672	463.6273498535156	1148.610961914062	261.1083679199219	602.5755004882812	1134.20361328125	227.3178253173828	46.93029022216797	1067.318115234375	246.6115875244141	244.9119720458984	1112.871459960938	162.6223754882812	45.02835845947266	1273.048217773438	123.8046188354492	31.61856079101562	1203.068481445312	236.2230224609375	42.48370361328125	1193.678100585938	160.0931396484375	39.16903305053711	1033.919311523438	-71.89358520507812	464.6715393066406	1109.245971679688	-80.64857482910156	730.2993774414062	1124.240112304688	-77.91411590576172	55.29538726806641	1073.432739257812	-67.98584747314453	350.5106811523438	1121.397216796875	-19.42524719238281	46.39662933349609	1264.98876953125	19.22378158569336	39.18783950805664	1206.042602539062	-93.84677886962891	41.86227416992188	1175.76708984375	-33.35739517211914	53.44778060913086	1021.702087402344	nan	nan	nan	
475	4.74	51.53403472900391	974.3370971679688	953.928955078125	180.8947906494141	971.2788696289062	961.0516357421875	112.0086669921875	1026.560180664062	953.101806640625	112.9082183837891	1233.346801757812	1169.152587890625	124.2309036254883	1145.949829101562	933.638671875	147.4742584228516	1397.26513671875	957.6824340820312	125.047966003418	1354.714111328125	1116.07568359375	80.12073516845703	1257.038330078125	916.988037109375	247.4308319091797	1355.83837890625	956.6533813476562	296.4377746582031	1377.478393554688	1044.8896484375	361.8283386230469	1254.599609375	1042.3154296875	378.478515625	1055.248046875	1088.997924804688	325.6730041503906	1030.718994140625	1026.304321289062	311.592041015625	872.23779296875	1258.746704101562	364.3829345703125	839.6759643554688	1227.694091796875	378.9336853027344	959.0775756835938	1133.360961914062	287.2363586425781	723.284423828125	1326.169189453125	349.165283203125	774.9530029296875	1251.916381835938	317.6600341796875	802.9559936523438	1300.882080078125	-21.1193733215332	1395.020385742188	998.9371337890625	-84.25783538818359	1331.129516601562	983.8575439453125	-122.1754760742188	1064.739868164062	985.4409790039062	-29.21175575256348	1056.77685546875	969.9551391601562	-112.6524658203125	835.5338745117188	1100.9091796875	-170.0470123291016	824.8468627929688	1050.56103515625	-139.652587890625	998.9471435546875	1006.331726074219	-135.9561767578125	660.95556640625	1101.650512695312	-137.358642578125	732.3302001953125	1119.040405273438	-173.7779541015625	740.1815795898438	1060.26904296875	61.64970016479492	1615.182861328125	1000.844909667969	175.0654296875	1617.875854492188	1175.800903320312	74.57553100585938	1621.503540039062	1162.565307617188	206.1861267089844	1606.078369140625	992.1299438476562	280.1197204589844	918.8768310546875	1055.77880859375	-62.10305023193359	928.4679565429688	1030.799926757812	-24.71359252929688	962.382568359375	1137.15673828125	212.8034057617188	954.0575561523438	1170.883056640625	246.5368347167969	463.7676086425781	1147.900756835938	260.3670349121094	602.8040161132812	1134.17236328125	227.2582702636719	46.94124221801758	1067.2666015625	246.3612823486328	245.1392669677734	1112.259643554688	162.6307678222656	45.01345062255859	1273.066162109375	123.8586730957031	31.63482856750488	1203.027587890625	236.2434997558594	42.58154296875	1193.65234375	160.0157928466797	39.13916778564453	1033.864501953125	-73.06101226806641	465.176025390625	1106.479125976562	-81.30458831787109	730.8627319335938	1125.720458984375	-78.12846374511719	55.13144302368164	1073.208984375	-69.05143737792969	350.7839050292969	1119.25634765625	-19.72680282592773	46.66476058959961	1264.909423828125	18.9611759185791	39.5096321105957	1206.004272460938	-94.19986724853516	41.51850128173828	1175.5478515625	-33.64350891113281	53.23097610473633	1021.60888671875	nan	nan	nan	
476	4.75	50.51947021484375	975.0977783203125	955.8230590820312	179.7900848388672	971.6474609375	962.71875	110.9955596923828	1026.716918945312	954.9080810546875	112.1609497070312	1233.907592773438	1170.522583007812	123.4439163208008	1146.00390625	934.7896728515625	146.7986297607422	1397.301513671875	958.7033081054688	124.4017562866211	1355.099975585938	1117.166137695312	79.26136016845703	1257.006713867188	918.2711791992188	246.6987609863281	1355.8564453125	957.7906494140625	295.7724609375	1377.645874023438	1045.948974609375	360.9522094726562	1254.664428710938	1043.202758789062	376.49462890625	1055.010864257812	1088.715209960938	323.3438415527344	1031.14697265625	1026.070068359375	310.0447998046875	869.0906372070312	1256.1796875	362.7635192871094	837.0465087890625	1224.559326171875	376.9606018066406	958.1360473632812	1131.909423828125	285.7633056640625	718.9437866210938	1320.722412109375	347.5343017578125	771.8455200195312	1247.255859375	315.7749633789062	798.6468505859375	1296.597778320312	-21.80133819580078	1395.242431640625	999.9270629882812	-85.05156707763672	1331.413940429688	985.1459350585938	-123.6724014282227	1065.182495117188	987.999267578125	-30.83904838562012	1056.956665039062	971.824462890625	-113.1827850341797	836.6293334960938	1104.969360351562	-171.13330078125	825.66943359375	1055.424194335938	-141.0546875	999.4411010742188	1009.512023925781	-136.821533203125	662.1665649414062	1107.5185546875	-137.8896789550781	733.6658935546875	1124.32421875	-174.9573516845703	741.1047973632812	1065.92138671875	60.79683303833008	1615.096069335938	1001.200378417969	174.3090515136719	1618.42919921875	1176.037841796875	73.89817810058594	1622.000854492188	1162.967163085938	205.3267669677734	1605.979614257812	992.4157104492188	278.9690551757812	919.113037109375	1057.347290039062	-62.92718124389648	929.013916015625	1032.553833007812	-25.51626396179199	962.9172973632812	1139.0400390625	212.0128631591797	954.4259643554688	1172.506713867188	246.2474517822266	463.9266052246094	1147.0625	259.748291015625	603.071533203125	1133.97998046875	227.2438049316406	46.91904449462891	1067.20556640625	246.1642303466797	245.3640899658203	1111.595581054688	162.6510620117188	44.99774169921875	1273.08984375	123.9286499023438	31.65906715393066	1202.97802734375	236.3054656982422	42.66557693481445	1193.627807617188	159.9718933105469	39.11188888549805	1033.812377929688	-74.22135925292969	465.59033203125	1103.826049804688	-82.00238800048828	731.2822875976562	1127.18798828125	-78.36673736572266	54.95811080932617	1073.015869140625	-70.08451080322266	351.0359802246094	1117.217041015625	-20.04000091552734	46.91571044921875	1264.841552734375	18.67328453063965	39.83166122436523	1205.970336914062	-94.58088684082031	41.13329315185547	1175.338256835938	-33.92800140380859	53.01375961303711	1021.538696289062	nan	nan	nan	
477	4.76	49.39213562011719	975.7614135742188	957.7133178710938	178.5963287353516	972.0205078125	964.3489379882812	109.9013137817383	1026.8154296875	956.7549438476562	111.4459915161133	1234.411254882812	1171.8544921875	122.699821472168	1146.008666992188	935.9365844726562	146.1575469970703	1397.299560546875	959.6965942382812	123.775016784668	1355.448852539062	1118.217041015625	78.44943237304688	1256.911010742188	919.509033203125	246.0190582275391	1355.810302734375	958.911865234375	295.1464233398438	1377.777221679688	1047.01611328125	360.1442565917969	1254.704711914062	1044.123779296875	374.6037292480469	1054.7607421875	1088.494018554688	321.1690368652344	1031.53662109375	1025.87841796875	308.5308532714844	865.8710327148438	1253.534790039062	361.185302734375	834.3616333007812	1221.392456054688	375.0790710449219	957.1996459960938	1130.494262695312	284.2806701660156	714.65380859375	1315.101318359375	345.92578125	768.715087890625	1242.465576171875	313.77294921875	794.2178955078125	1292.095336914062	-22.44902610778809	1395.395263671875	1000.845031738281	-85.77207946777344	1331.657348632812	986.3390502929688	-125.1604232788086	1065.595336914062	990.448974609375	-32.464599609375	1057.057250976562	973.6361694335938	-113.7387313842773	837.7691040039062	1109.045166015625	-172.241943359375	826.5030517578125	1060.313354492188	-142.4742279052734	999.9002075195312	1012.606506347656	-137.7894744873047	663.4668579101562	1113.62890625	-138.4962005615234	735.096435546875	1129.74560546875	-176.1705780029297	742.0602416992188	1071.673461914062	59.94431686401367	1614.964111328125	1001.501220703125	173.5086975097656	1618.954467773438	1176.25	73.19242858886719	1622.441528320312	1163.319580078125	204.4909210205078	1605.891235351562	992.7009887695312	277.7198791503906	919.3221435546875	1058.91259765625	-63.8056755065918	929.38330078125	1034.28662109375	-26.3746166229248	963.2747802734375	1140.906372070312	211.1802062988281	954.7443237304688	1174.098999023438	246.0812072753906	464.093017578125	1146.15673828125	259.2303466796875	603.3489379882812	1133.670166015625	227.2699737548828	46.86719131469727	1067.1328125	246.0230255126953	245.5835876464844	1110.905639648438	162.6839447021484	44.98236465454102	1273.12109375	124.0087661743164	31.68883323669434	1202.922119140625	236.4008636474609	42.73453521728516	1193.60009765625	159.9591674804688	39.09128952026367	1033.760131835938	-75.313232421875	465.8814086914062	1101.355590820312	-82.75420379638672	731.525146484375	1128.634765625	-78.60746002197266	54.78680419921875	1072.863037109375	-71.04241180419922	351.2625122070312	1115.314453125	-20.34688377380371	47.12813568115234	1264.778930664062	18.37478446960449	40.13505172729492	1205.93408203125	-94.96937561035156	40.73719024658203	1175.1435546875	-34.17849731445312	52.81609725952148	1021.482543945312	nan	nan	nan	
